<?xml version="1.0" encoding="utf-8"?>
<!-- Generator: Adobe Illustrator 26.1.0, SVG Export Plug-In . SVG Version: 6.00 Build 0)  -->
<svg version="1.1" id="Layer_1" xmlns="http://www.w3.org/2000/svg" xmlns:xlink="http://www.w3.org/1999/xlink" x="0px" y="0px"
	 viewBox="0 0 500 500" style="enable-background:new 0 0 500 500;" xml:space="preserve">
<style type="text/css">
	.st0{fill:none;stroke:#FFFFFF;stroke-width:20;}
	.st1{fill:#FFFFFF;stroke:#231F20;stroke-width:5;stroke-miterlimit:144;}
.st2{fill:#000000;stroke:none}
</style>

<g transform="     translate(250 250)     scale(3)     translate(-48 -48)   ">
	<g transform="translate(0 0)">
		<path class="st1" d="M61.2,23.9h25.7c2,0,3.7,1.7,3.7,3.7v40.8c0,2-1.6,3.7-3.7,3.7H61.2c-2,0-3.7-1.7-3.7-3.7V27.6
			C57.5,25.5,59.2,23.9,61.2,23.9z"/>
		<ellipse class="st2" cx="73.9" cy="48" rx="9" ry="9"/>
	</g>
	<g transform="translate(32 0)">
		<path class="st1" d="M9.2,23.9h25.7c2,0,3.7,1.7,3.7,3.7v40.8c0,2-1.6,3.7-3.7,3.7H9.2c-2,0-3.7-1.7-3.7-3.7V27.6
			C5.6,25.5,7.2,23.9,9.2,23.9z"/>
		<ellipse class="st2" cx="22" cy="48" rx="9" ry="9"/>
	</g>
	<g transform="translate(32 0)">
		<path class="st1" d="M-10.9,23.9h25.7c2,0,3.7,1.7,3.7,3.7v40.8c0,2-1.6,3.7-3.7,3.7h-25.7c-2,0-3.7-1.7-3.7-3.7V27.6
			C-14.4,25.5-12.9,23.9-10.9,23.9z"/>
		<ellipse class="st2" cx="2" cy="48" rx="9" ry="9"/>
	</g>
	<g transform="translate(32 0)">
		<path class="st1" d="M-30.8,23.9h25.7c2,0,3.7,1.7,3.7,3.7v40.8c0,2-1.6,3.7-3.7,3.7h-25.7c-2,0-3.7-1.7-3.7-3.7V27.6
			C-34.5,25.5-32.8,23.9-30.8,23.9z"/>
		<ellipse class="st2" cx="-18" cy="48" rx="9" ry="9"/>
	</g>
</g>
</svg>
