<?xml version="1.0" encoding="utf-8"?>
<!-- Generator: Adobe Illustrator 26.1.0, SVG Export Plug-In . SVG Version: 6.00 Build 0)  -->
<svg version="1.1" id="Layer_1" xmlns="http://www.w3.org/2000/svg" xmlns:xlink="http://www.w3.org/1999/xlink" x="0px" y="0px"
	 viewBox="0 0 500 500" style="enable-background:new 0 0 500 500;" xml:space="preserve">
<style type="text/css">
	.st0{fill:none;stroke:#FFFFFF;stroke-width:20;}
	.st1{fill:#FFFFFF;stroke:#231F20;stroke-width:5;stroke-miterlimit:144;}
.st2{fill:#000000;stroke:none}
</style>

<g transform="     translate(250 250)     scale(3)     translate(-48 -48)   ">
	<g transform="translate(32 0)">
		<path class="st1" d="M13,58.2h25.7c2,0,3.7,1.7,3.7,3.7v40.8c0,2-1.6,3.7-3.7,3.7H13c-2,0-3.7-1.7-3.7-3.7V61.9
			C9.5,59.8,11,58.2,13,58.2z"/>
		<ellipse class="st2" cx="25.9" cy="82.3" rx="9" ry="9"/>
	</g>
	<g transform="translate(32 0)">
		<path class="st1" d="M-6.9,58.2h25.7c2,0,3.7,1.7,3.7,3.7v40.8c0,2-1.6,3.7-3.7,3.7H-6.9c-2,0-3.7-1.7-3.7-3.7V61.9
			C-10.6,59.8-8.9,58.2-6.9,58.2z"/>
		<ellipse class="st2" cx="5.9" cy="82.3" rx="9" ry="9"/>
	</g>
</g>
<g transform="     translate(250 250)     scale(3)     translate(-48 -48)   ">
	<g transform="translate(32 0)">
		<path class="st1" d="M23.1-0.2h25.7c2,0,3.7,1.7,3.7,3.7v40.8c0,2-1.6,3.7-3.7,3.7H23.1c-2,0-3.7-1.7-3.7-3.7V3.5
			C19.5,1.4,21.1-0.2,23.1-0.2z"/>
		<ellipse class="st2" cx="35.9" cy="23.9" rx="9" ry="9"/>
	</g>
	<g transform="translate(32 0)">
		<path class="st1" d="M3-0.2h25.7c2,0,3.7,1.7,3.7,3.7v40.8c0,2-1.6,3.7-3.7,3.7H3c-2,0-3.7-1.7-3.7-3.7V3.5C-0.5,1.4,1-0.2,3-0.2z
			"/>
		<ellipse class="st2" cx="15.9" cy="23.9" rx="9" ry="9"/>
	</g>
	<g transform="translate(32 0)">
		<path class="st1" d="M-16.9-0.2H8.9c2,0,3.7,1.7,3.7,3.7v40.8c0,2-1.6,3.7-3.7,3.7h-25.7c-2,0-3.7-1.7-3.7-3.7V3.5
			C-20.6,1.4-18.9-0.2-16.9-0.2z"/>
		<ellipse class="st2" cx="-4.1" cy="23.9" rx="9" ry="9"/>
	</g>
</g>
</svg>
