<?xml version="1.0" encoding="utf-8"?>
<!-- Generator: Adobe Illustrator 26.1.0, SVG Export Plug-In . SVG Version: 6.00 Build 0)  -->
<svg version="1.1" id="Layer_1" xmlns="http://www.w3.org/2000/svg" xmlns:xlink="http://www.w3.org/1999/xlink" x="0px" y="0px"
	 viewBox="0 0 500 500" style="enable-background:new 0 0 500 500;" xml:space="preserve">
<style type="text/css">
	.st0{fill:none;stroke:#FFFFFF;stroke-width:20;}
	.st1{fill:#FFFFFF;stroke:#231F20;stroke-width:5;stroke-miterlimit:144;}
.st2{fill:#0000FF;stroke:none}
</style>

<g transform="     translate(250 250)     scale(3)     translate(-48 -48)   ">
	<g transform="translate(32 0)">
		<path class="st1" d="M43.1,43.9h25.7c2,0,3.7,1.7,3.7,3.7v40.8c0,2-1.6,3.7-3.7,3.7H43.1c-2,0-3.7-1.7-3.7-3.7V47.6
			C39.5,45.5,41.1,43.9,43.1,43.9z"/>
		<ellipse class="st2" cx="55.9" cy="68" rx="9" ry="9"/>
	</g>
	<g transform="translate(32 0)">
		<path class="st1" d="M23.1,33.9h25.7c2,0,3.7,1.7,3.7,3.7v40.8c0,2-1.6,3.7-3.7,3.7H23.1c-2,0-3.7-1.7-3.7-3.7V37.6
			C19.6,35.5,21.1,33.9,23.1,33.9z"/>
		<ellipse class="st2" cx="36" cy="58" rx="9" ry="9"/>
	</g>
	<g transform="translate(32 0)">
		<path class="st1" d="M3.1,23.9h25.7c2,0,3.7,1.7,3.7,3.7v40.8c0,2-1.6,3.7-3.7,3.7H3.1c-2,0-3.7-1.7-3.7-3.7V27.6
			C-0.6,25.5,1.1,23.9,3.1,23.9z"/>
		<ellipse class="st2" cx="15.9" cy="48" rx="9" ry="9"/>
	</g>
	<g transform="translate(32 0)">
		<path class="st1" d="M-16.9,13.9H8.9c2,0,3.7,1.7,3.7,3.7v40.8c0,2-1.6,3.7-3.7,3.7h-25.7c-2,0-3.7-1.7-3.7-3.7V17.6
			C-20.5,15.5-18.9,13.9-16.9,13.9z"/>
		<ellipse class="st2" cx="-4.1" cy="38" rx="9" ry="9"/>
	</g>
	<g transform="translate(32 0)">
		<path class="st1" d="M-36.9,3.9h25.7c2,0,3.7,1.7,3.7,3.7v40.8c0,2-1.6,3.7-3.7,3.7h-25.7c-2,0-3.7-1.7-3.7-3.7V7.6
			C-40.5,5.5-38.9,3.9-36.9,3.9z"/>
		<ellipse class="st2" cx="-24.1" cy="28" rx="9" ry="9"/>
	</g>
</g>
</svg>
