<?xml version="1.0" encoding="utf-8"?>
<!-- Generator: Adobe Illustrator 26.1.0, SVG Export Plug-In . SVG Version: 6.00 Build 0)  -->
<svg version="1.1" id="Layer_1" xmlns="http://www.w3.org/2000/svg" xmlns:xlink="http://www.w3.org/1999/xlink" x="0px" y="0px"
	 viewBox="0 0 500 500" style="enable-background:new 0 0 500 500;" xml:space="preserve">
<style type="text/css">
	.st0{fill:none;stroke:#FFFFFF;stroke-width:20;}
	.st1{fill:#FFFFFF;stroke:#231F20;stroke-width:5;stroke-miterlimit:144;}
.st2{fill:#000000;stroke:none}
</style>

<g transform="     translate(250 250)     scale(3)     translate(-48 -48)   ">
	<g transform="translate(32 0)">
		<path class="st1" d="M21.8,23.9h25.7c2,0,3.7,1.7,3.7,3.7v40.8c0,2-1.6,3.7-3.7,3.7H21.8c-2,0-3.7-1.7-3.7-3.7V27.6
			C18.2,25.5,19.8,23.9,21.8,23.9z"/>
		<ellipse class="st2" cx="34.6" cy="48" rx="9" ry="9"/>
	</g>
	<g transform="translate(32 0)">
		<path class="st1" d="M1.7,23.9h25.7c2,0,3.7,1.7,3.7,3.7v40.8c0,2-1.6,3.7-3.7,3.7H1.7c-2,0-3.7-1.7-3.7-3.7V27.6
			C-1.8,25.5-0.3,23.9,1.7,23.9z"/>
		<ellipse class="st2" cx="14.6" cy="48" rx="9" ry="9"/>
	</g>
	<g transform="translate(32 0)">
		<path class="st1" d="M-18.2,23.9H7.5c2,0,3.7,1.7,3.7,3.7v40.8c0,2-1.6,3.7-3.7,3.7h-25.7c-2,0-3.7-1.7-3.7-3.7V27.6
			C-21.9,25.5-20.2,23.9-18.2,23.9z"/>
		<ellipse class="st2" cx="-5.4" cy="48" rx="9" ry="9"/>
	</g>
</g>
</svg>
