<?xml version="1.0" encoding="utf-8"?>
<!-- Generator: Adobe Illustrator 26.1.0, SVG Export Plug-In . SVG Version: 6.00 Build 0)  -->
<svg version="1.1" id="Layer_1" xmlns="http://www.w3.org/2000/svg" xmlns:xlink="http://www.w3.org/1999/xlink" x="0px" y="0px"
	 viewBox="0 0 500 500" style="enable-background:new 0 0 500 500;" xml:space="preserve">
<style type="text/css">
	.st0{fill:none;stroke:#FFFFFF;stroke-width:20;}
	.st1{fill:#FFFFFF;stroke:#231F20;stroke-width:5;stroke-miterlimit:144;}
.st2{fill:#000000;stroke:none}
</style>
<circle class="st0" cx="250" cy="250" r="230"/>
<g transform="     translate(250 250)     scale(3)     translate(-48 -48)   ">
	<g transform="translate(32 0)">
		<path class="st1" d="M-6.8-0.2h25.7c2,0,3.7,1.7,3.7,3.7v40.8c0,2-1.6,3.7-3.7,3.7H-6.8c-2,0-3.7-1.7-3.7-3.7V3.5
			C-10.3,1.4-8.8-0.2-6.8-0.2z"/>
		<ellipse class="st2" cx="6.1" cy="23.9" rx="9" ry="9"/>
	</g>
	<g transform="translate(32 0)">
		<path class="st1" d="M-26.7-0.2H-1c2,0,3.7,1.7,3.7,3.7v40.8c0,2-1.6,3.7-3.7,3.7h-25.7c-2,0-3.7-1.7-3.7-3.7V3.5
			C-30.4,1.4-28.7-0.2-26.7-0.2z"/>
		<ellipse class="st2" cx="-13.9" cy="23.9" rx="9" ry="9"/>
	</g>
</g>
<g transform="     translate(250 250)     scale(3)     translate(-48 -48)   ">
	<g transform="translate(32 0)">
		<path class="st1" d="M30.9,53.3h25.7c2,0,3.7,1.7,3.7,3.7v40.8c0,2-1.6,3.7-3.7,3.7H30.9c-2,0-3.7-1.7-3.7-3.7V57
			C27.4,54.9,28.9,53.3,30.9,53.3z"/>
		<ellipse class="st2" cx="43.8" cy="77.4" rx="9" ry="9"/>
	</g>
	<g transform="translate(32 0)">
		<path class="st1" d="M11,53.3h25.7c2,0,3.7,1.7,3.7,3.7v40.8c0,2-1.6,3.7-3.7,3.7H11c-2,0-3.7-1.7-3.7-3.7V57
			C7.3,54.9,9,53.3,11,53.3z"/>
		<ellipse class="st2" cx="23.8" cy="77.4" rx="9" ry="9"/>
	</g>
</g>
</svg>
