<?xml version="1.0" encoding="utf-8"?>
<!-- Generator: Adobe Illustrator 26.1.0, SVG Export Plug-In . SVG Version: 6.00 Build 0)  -->
<svg version="1.1" id="Layer_1" xmlns="http://www.w3.org/2000/svg" xmlns:xlink="http://www.w3.org/1999/xlink" x="0px" y="0px"
	 viewBox="0 0 347.7 371.7" style="enable-background:new 0 0 347.7 371.7;" xml:space="preserve">
<style type="text/css">
	.st0{fill:#FF0000;}
</style>
<path class="st0" d="M171.5,370.6c-0.3-0.6-1.8-5.1-3.3-9.9c-9.3-30.7-26.4-61.8-55.2-99.9c-10.8-14.3-21-27-48.5-60.4
	c-31.9-38.7-41-51.1-50.2-68.2C8.9,122,3.3,106.6,1.4,96.8C-0.4,87-0.5,71.1,1.3,62.7C8.7,28.9,38.8,3.3,74.8,0.4
	C116-3,151,17.8,169.4,56.6l4.1,8.7l3.1-6.8c4.6-10.2,9-17,16.5-25.6c19-21.9,41.7-32.6,69-32.6c12.2,0,19.2,1,29.6,4.3
	c15.6,4.9,27.3,12.6,37.7,24.7c27.2,31.6,24,74.5-9.5,127.2c-7.8,12.3-21.9,30.5-41.3,53.2c-22.3,26.2-33.3,39.6-44.4,54.3
	c-26.8,35.2-44.8,67.3-54.7,97.2c-1.5,4.6-3.1,8.8-3.5,9.5C174.9,372,172.3,372.1,171.5,370.6L171.5,370.6z"/>
</svg>
